<svg width="35" height="40" viewBox="0 0 35 40" fill="none" xmlns="http://www.w3.org/2000/svg">
<g clip-path="url(#clip0_33_33)">
<path d="M35 16.3984C31.5593 16.4058 28.2033 15.3318 25.4063 13.3281V27.2969C25.4055 29.8839 24.6148 32.4091 23.14 34.5346C21.6651 36.6602 19.5765 38.2847 17.1533 39.191C14.7302 40.0973 12.0881 40.2422 9.58042 39.6062C7.07273 38.9703 4.81898 37.5838 3.12062 35.6323C1.42225 33.6807 0.36023 31.2571 0.0765895 28.6857C-0.207051 26.1142 0.301214 23.5174 1.53341 21.2426C2.7656 18.9678 4.66297 17.1235 6.97177 15.9562C9.28057 14.789 11.8907 14.3545 14.4531 14.7109V21.7344C13.2815 21.3655 12.0232 21.3763 10.858 21.7652C9.69288 22.1541 8.68036 22.9011 7.96508 23.8997C7.24979 24.8984 6.86831 26.0974 6.8751 27.3258C6.88189 28.5541 7.27661 29.7489 8.00289 30.7395C8.72917 31.7301 9.74988 32.466 10.9193 32.842C12.0887 33.2179 13.347 33.2148 14.5145 32.833C15.682 32.4513 16.6991 31.7104 17.4204 30.7162C18.1418 29.7219 18.5306 28.5252 18.5313 27.2969V0H25.4063C25.4024 0.581456 25.4521 1.16203 25.5547 1.73437C25.7938 3.01016 26.2905 4.22378 27.0145 5.30108C27.7386 6.37839 28.6747 7.29673 29.7656 7.99999C31.3186 9.02565 33.1389 9.57176 35 9.57031V16.3984Z" fill="#923416"/>
</g>
<defs>
<clipPath id="clip0_33_33">
<rect width="35" height="40" fill="white"/>
</clipPath>
</defs>
</svg>
